<svg width="162" height="75" viewBox="0 0 162 75" fill="none" xmlns="http://www.w3.org/2000/svg">
<path d="M4.512 73.648C3.296 73.648 2.336 72.624 1.632 70.576C0.928 68.528 0.576 66.224 0.576 63.664C0.576 60.592 1.088 56.944 2.112 52.72C3.136 48.496 4.48 44.048 6.144 39.376C7.808 34.704 9.664 30.128 11.712 25.648C13.824 21.168 15.968 17.104 18.144 13.456C20.32 9.808 22.368 6.896 24.288 4.72C26.208 2.544 27.872 1.456 29.28 1.456C30.432 1.456 31.232 2.16 31.68 3.568C32.192 4.912 32.448 6.224 32.448 7.504C32.448 9.296 32.032 11.472 31.2 14.032C30.432 16.592 29.344 19.344 27.936 22.288C26.528 25.168 24.896 28.016 23.04 30.832C21.184 33.648 19.168 36.24 16.992 38.608C14.816 40.912 12.608 42.736 10.368 44.08C9.6 45.936 8.928 48.016 8.352 50.32C7.84 52.624 7.456 54.896 7.2 57.136C6.944 59.312 6.816 61.264 6.816 62.992C6.816 63.696 6.816 64.304 6.816 64.816C6.88 65.328 6.944 65.808 7.008 66.256C7.904 63.632 8.864 61.104 9.888 58.672C10.976 56.176 12.128 53.904 13.344 51.856C14.56 49.744 15.84 47.92 17.184 46.384C18.592 44.784 20.064 43.568 21.6 42.736C23.136 41.84 24.768 41.392 26.496 41.392C28.288 41.392 29.696 41.84 30.72 42.736C31.808 43.568 32.576 44.656 33.024 46C33.536 47.28 33.792 48.624 33.792 50.032C33.792 52.016 33.44 53.936 32.736 55.792C32.096 57.648 31.424 59.44 30.72 61.168C30.016 62.896 29.664 64.56 29.664 66.16C29.664 67.44 29.92 68.368 30.432 68.944C31.008 69.52 31.712 69.808 32.544 69.808C34.016 69.808 35.648 69.104 37.44 67.696C39.296 66.288 41.12 64.432 42.912 62.128C44.704 59.76 46.24 57.2 47.52 54.448L48.768 55.6C47.424 58.736 45.792 61.584 43.872 64.144C41.952 66.64 39.84 68.624 37.536 70.096C35.232 71.568 32.832 72.304 30.336 72.304C28.16 72.304 26.496 71.728 25.344 70.576C24.256 69.424 23.712 67.984 23.712 66.256C23.712 64.912 23.968 63.408 24.48 61.744C24.992 60.08 25.472 58.384 25.92 56.656C26.432 54.928 26.688 53.296 26.688 51.76C26.688 50.096 26.336 48.912 25.632 48.208C24.928 47.504 24.064 47.152 23.04 47.152C21.44 47.152 20 47.792 18.72 49.072C17.44 50.352 16.256 52.016 15.168 54.064C14.144 56.048 13.152 58.16 12.192 60.4C11.296 62.64 10.432 64.784 9.6 66.832C8.768 68.816 7.936 70.448 7.104 71.728C6.272 73.008 5.408 73.648 4.512 73.648ZM11.616 40.336C13.408 38.928 15.136 37.136 16.8 34.96C18.528 32.784 20.128 30.48 21.6 28.048C23.072 25.552 24.384 23.12 25.536 20.752C26.688 18.384 27.584 16.24 28.224 14.32C28.864 12.4 29.184 10.96 29.184 10C29.184 9.68 29.152 9.488 29.088 9.424C29.024 9.296 28.928 9.232 28.8 9.232C28.352 9.232 27.424 10.128 26.016 11.92C24.672 13.648 23.104 15.984 21.312 18.928C19.52 21.872 17.76 25.2 16.032 28.912C14.304 32.624 12.832 36.432 11.616 40.336ZM56.0243 74.224C52.1203 74.224 49.1763 73.136 47.1923 70.96C45.2722 68.848 44.3122 66.224 44.3122 63.088C44.3122 60.208 45.0162 57.168 46.4243 53.968C47.8963 50.768 49.8163 47.76 52.1843 44.944C54.6163 42.128 57.2723 39.856 60.1523 38.128C63.0323 36.336 65.8803 35.44 68.6963 35.44C70.1683 35.44 71.5123 35.824 72.7283 36.592C74.0083 37.36 74.6483 38.928 74.6483 41.296C74.6483 43.728 73.9123 46.032 72.4403 48.208C71.0323 50.32 69.1443 52.208 66.7763 53.872C64.4723 55.536 61.9123 56.912 59.0963 58C56.3443 59.024 53.5923 59.664 50.8403 59.92C50.7123 60.56 50.6163 61.168 50.5523 61.744C50.4883 62.32 50.4563 62.864 50.4563 63.376C50.4563 64.336 50.5523 65.296 50.7443 66.256C51.0003 67.216 51.4163 68.112 51.9922 68.944C52.5683 69.712 53.3363 70.32 54.2963 70.768C55.3203 71.216 56.5683 71.44 58.0403 71.44C60.7923 71.44 63.5123 70.672 66.2003 69.136C68.8883 67.536 71.3843 65.456 73.6883 62.896C75.9923 60.336 77.9443 57.52 79.5443 54.448L80.6963 55.312C78.9683 59.152 76.7603 62.48 74.0723 65.296C71.4483 68.112 68.5683 70.288 65.4323 71.824C62.3603 73.424 59.2243 74.224 56.0243 74.224ZM51.3203 58.096C53.0483 57.52 55.0003 56.688 57.1763 55.6C59.3523 54.448 61.4323 53.104 63.4163 51.568C65.4643 50.032 67.1283 48.336 68.4083 46.48C69.7523 44.624 70.4243 42.672 70.4243 40.624C70.4243 39.92 70.2963 39.376 70.0403 38.992C69.7843 38.608 69.2403 38.416 68.4083 38.416C66.8723 38.416 65.2403 39.024 63.5123 40.24C61.7843 41.392 60.1203 42.928 58.5203 44.848C56.9203 46.768 55.4803 48.88 54.2003 51.184C52.9203 53.488 51.9603 55.792 51.3203 58.096ZM85.593 72.88C82.841 72.88 80.857 71.92 79.641 70C78.489 68.144 77.913 65.808 77.913 62.992C77.913 59.92 78.489 56.272 79.641 52.048C80.793 47.824 82.297 43.376 84.153 38.704C86.073 34.032 88.153 29.488 90.393 25.072C92.633 20.592 94.873 16.528 97.113 12.88C99.353 9.232 101.401 6.32 103.257 4.144C105.177 1.968 106.681 0.879997 107.769 0.879997C108.473 0.879997 109.049 1.296 109.497 2.128C109.945 2.896 110.297 3.856 110.553 5.008C110.809 6.096 110.937 7.088 110.937 7.984C110.937 9.712 110.489 11.984 109.593 14.8C108.761 17.552 107.545 20.656 105.945 24.112C104.409 27.504 102.553 30.96 100.377 34.48C98.265 37.936 95.929 41.264 93.369 44.464C90.873 47.664 88.217 50.416 85.401 52.72C85.017 54.448 84.697 56.144 84.441 57.808C84.249 59.408 84.153 60.944 84.153 62.416C84.153 67.344 85.561 69.808 88.377 69.808C89.913 69.808 91.449 69.168 92.985 67.888C94.585 66.544 96.089 64.848 97.497 62.8C98.969 60.752 100.249 58.576 101.337 56.272C101.977 52.944 102.937 49.392 104.217 45.616C105.497 41.776 106.969 37.936 108.633 34.096C110.297 30.256 112.057 26.576 113.913 23.056C115.769 19.536 117.593 16.4 119.385 13.648C121.177 10.896 122.841 8.72 124.377 7.12C125.913 5.52 127.161 4.72 128.121 4.72C128.825 4.72 129.401 5.136 129.849 5.96799C130.297 6.736 130.649 7.696 130.905 8.848C131.161 9.936 131.289 10.928 131.289 11.824C131.289 13.936 130.745 16.72 129.657 20.176C128.569 23.568 127.001 27.216 124.953 31.12C122.969 35.024 120.537 38.896 117.657 42.736C114.841 46.512 111.673 49.84 108.153 52.72C107.769 54.448 107.449 56.144 107.193 57.808C107.001 59.408 106.905 60.944 106.905 62.416C106.905 67.344 108.313 69.808 111.129 69.808C112.857 69.808 114.553 69.04 116.217 67.504C117.945 65.968 119.545 64.048 121.017 61.744C122.553 59.376 123.865 56.944 124.953 54.448L126.393 55.216C123.833 60.656 121.049 64.976 118.041 68.176C115.033 71.312 111.801 72.88 108.345 72.88C105.273 72.88 103.161 71.728 102.009 69.424C100.857 67.12 100.441 64.24 100.761 60.784C98.521 64.56 96.121 67.536 93.561 69.712C91.065 71.824 88.409 72.88 85.593 72.88ZM86.265 49.456C88.505 47.216 90.681 44.656 92.793 41.776C94.905 38.832 96.857 35.792 98.649 32.656C100.505 29.52 102.137 26.48 103.545 23.536C104.953 20.592 106.041 17.968 106.809 15.664C107.577 13.296 107.961 11.472 107.961 10.192C107.961 9.552 107.865 9.136 107.673 8.944C107.545 8.752 107.417 8.65599 107.289 8.65599C106.777 8.65599 105.881 9.488 104.601 11.152C103.385 12.752 101.945 14.928 100.281 17.68C98.617 20.432 96.921 23.568 95.193 27.088C93.465 30.608 91.801 34.288 90.201 38.128C88.665 41.968 87.353 45.744 86.265 49.456ZM109.017 49.456C111.833 46.64 114.393 43.536 116.697 40.144C119.065 36.752 121.113 33.36 122.841 29.968C124.569 26.576 125.913 23.472 126.873 20.656C127.833 17.84 128.313 15.632 128.313 14.032C128.313 13.392 128.217 12.976 128.025 12.784C127.897 12.592 127.769 12.496 127.641 12.496C127.001 12.496 125.913 13.552 124.377 15.664C122.905 17.712 121.209 20.496 119.289 24.016C117.433 27.536 115.577 31.504 113.721 35.92C111.929 40.336 110.361 44.848 109.017 49.456ZM129.624 73.072C126.872 73.072 124.92 72.208 123.768 70.48C122.616 68.816 122.04 66.768 122.04 64.336C122.04 62.352 122.36 60.304 123 58.192C123.64 56.08 124.472 54.096 125.496 52.24C126.584 50.384 127.768 48.88 129.048 47.728C130.392 46.576 131.736 46 133.08 46C133.4 46 133.72 46.064 134.04 46.192C134.424 46.256 134.776 46.352 135.096 46.48C134.52 46.992 133.816 47.952 132.984 49.36C132.216 50.704 131.48 52.272 130.776 54.064C130.072 55.792 129.464 57.52 128.952 59.248C128.504 60.976 128.28 62.448 128.28 63.664C128.28 65.584 128.6 66.992 129.24 67.888C129.88 68.72 130.712 69.136 131.736 69.136C133.08 69.136 134.68 68.432 136.536 67.024C138.392 65.552 140.216 63.696 142.008 61.456C140.216 59.984 138.808 58.064 137.784 55.696C136.824 53.264 136.344 50.8 136.344 48.304C136.344 46.192 136.696 44.208 137.4 42.352C138.168 40.496 139.256 39.024 140.664 37.936C142.072 36.784 143.768 36.208 145.752 36.208C148.376 36.208 150.136 36.912 151.032 38.32C151.928 39.728 152.376 41.488 152.376 43.6C152.376 46.096 151.768 48.88 150.552 51.952C149.336 54.96 147.8 57.872 145.944 60.688C147.096 61.328 148.312 61.648 149.592 61.648C150.616 61.648 151.768 61.456 153.048 61.072C154.328 60.624 155.576 59.888 156.792 58.864C158.072 57.84 159.096 56.464 159.864 54.736L161.016 55.696C159.736 58.704 157.912 60.848 155.544 62.128C153.24 63.344 151.032 63.952 148.92 63.952C148.088 63.952 147.288 63.888 146.52 63.76C145.752 63.568 145.016 63.312 144.312 62.992C142.136 65.872 139.736 68.272 137.112 70.192C134.552 72.112 132.056 73.072 129.624 73.072ZM143.736 58.96C145.336 56.592 146.648 54.128 147.672 51.568C148.76 48.944 149.304 46.48 149.304 44.176C149.304 42.32 149.016 40.976 148.44 40.144C147.928 39.248 147.256 38.8 146.424 38.8C145.144 38.8 143.832 39.728 142.488 41.584C141.144 43.44 140.472 45.776 140.472 48.592C140.472 50.448 140.728 52.336 141.24 54.256C141.816 56.112 142.648 57.68 143.736 58.96Z" fill="url(#paint0_linear_13_112)"/>
<defs>
<linearGradient id="paint0_linear_13_112" x1="-15.5" y1="7" x2="177.5" y2="73" gradientUnits="userSpaceOnUse">
<stop stop-color="#F4BD50"/>
<stop offset="1" stop-color="#D09E3A"/>
</linearGradient>
</defs>
</svg>
